<?xml version="1.0" encoding="utf-8"?><!DOCTYPE svg PUBLIC "-//W3C//DTD SVG 1.1//EN" "http://www.w3.org/Graphics/SVG/1.1/DTD/svg11.dtd"><svg version="1.1" id="Layer_1" xmlns="http://www.w3.org/2000/svg" xmlns:xlink="http://www.w3.org/1999/xlink" x="0px" y="0px"  width="75px" height="75px" viewBox="0 0 75 75" enable-background="new 0 0 75 75" xml:space="preserve"><g> <path fill="#003082" d="M60.5,57c-0.276,0-0.5-0.224-0.5-0.5v-15c0-0.944-0.25-1.194-0.854-1.798  c-0.521-0.522-9.898-9.554-9.993-9.645c-0.199-0.192-0.205-0.508-0.014-0.707c0.192-0.199,0.51-0.205,0.707-0.014  c0.387,0.373,9.479,9.13,10.007,9.658C60.564,39.706,61,40.207,61,41.5v15C61,56.776,60.776,57,60.5,57z"/> <path fill="#003082" d="M45,57c-0.128,0-0.256-0.049-0.354-0.146l-5-5c-0.488-0.488-0.847-1.194-1.129-2.221  c-0.16-0.587-2.431-11.637-2.527-12.107c-0.326-1.97,1.026-3.467,2.466-3.735c1.919-0.354,3.41,0.49,4.081,2.326l2.734,8.227  c0.087,0.262-0.055,0.545-0.317,0.632s-0.544-0.056-0.632-0.317l-2.729-8.212c-0.503-1.376-1.499-1.945-2.953-1.672  c-0.977,0.182-1.891,1.216-1.666,2.569c0.652,3.175,2.383,11.564,2.509,12.026c0.23,0.841,0.516,1.423,0.871,1.778l5,5  c0.195,0.195,0.195,0.512,0,0.707C45.256,56.951,45.128,57,45,57z"/> <path fill="#003082" d="M48,22H16c-1.104,0-2,0.895-2,2v19c0,1.105,0.896,2,2,2h22.458l-0.28-1H16c-0.552,0-1-0.449-1-1V24  c0-0.551,0.448-1,1-1h32c0.552,0,1,0.449,1,1v19c0,0.551-0.448,1-1,1h-3.622l0.388,1H48c1.104,0,2-0.895,2-2V24  C50,22.895,49.104,22,48,22z"/> <rect x="14" y="26" fill="#003082" width="35.5" height="1"/> <path fill="#003082" d="M35.5,41c-0.827,0-1.5-0.673-1.5-1.5s0.673-1.5,1.5-1.5c0.48,0,0.904,0.231,1.178,0.583l-0.261-1.405  C36.133,37.066,35.825,37,35.5,37c-1.381,0-2.5,1.119-2.5,2.5s1.119,2.5,2.5,2.5c0.654,0,1.244-0.257,1.69-0.668l-0.26-1.401  C36.743,40.547,36.176,41,35.5,41z M39,31h-2c-1.206,0-1.662,0.456-2.354,1.146l-6.001,6.001C28.007,38.785,27.792,39,27,39h-2  c-0.552,0-1-0.449-1-1v-5c0-0.551,0.448-1,1-1h1.05c0.232,1.141,1.24,2,2.45,2c1.381,0,2.5-1.119,2.5-2.5S29.881,29,28.5,29  c-1.209,0-2.218,0.859-2.45,2H25c-1.1,0-2,0.9-2,2v5c0,1.1,0.9,2,2,2h2c1.206,0,1.662-0.456,2.354-1.146l6.001-6.001  C35.993,32.215,36.208,32,37,32h2c0.552,0,1,0.449,1,1v1.389l1,0.413V33C41,31.9,40.1,31,39,31z M28.5,30  c0.827,0,1.5,0.673,1.5,1.5S29.327,33,28.5,33S27,32.327,27,31.5S27.673,30,28.5,30z"/></g><style type="text/css">circle, ellipse, line, path, polygon, polyline, rect, text { fill: #003082; }</style></svg>