<?xml version="1.0" encoding="utf-8"?><!DOCTYPE svg PUBLIC "-//W3C//DTD SVG 1.1//EN" "http://www.w3.org/Graphics/SVG/1.1/DTD/svg11.dtd"><svg version="1.1" id="Layer_1" xmlns="http://www.w3.org/2000/svg" xmlns:xlink="http://www.w3.org/1999/xlink" x="0px" y="0px"  width="75px" height="75px" viewBox="0 0 75 75" enable-background="new 0 0 75 75" xml:space="preserve"><g> <g>  <g>   <path fill="#003082" d="M27.5,41c-2.206,0-4-2.019-4-4.5v-1c0-2.481,1.794-4.5,4-4.5s4,2.019,4,4.5v1    C31.5,38.981,29.706,41,27.5,41z M27.5,32c-1.654,0-3,1.57-3,3.5v1c0,1.93,1.346,3.5,3,3.5s3-1.57,3-3.5v-1    C30.5,33.57,29.154,32,27.5,32z"/>  </g> </g> <g>  <g>   <path fill="#003082" d="M37.5,35c-2.206,0-4-2.019-4-4.5v-1c0-2.481,1.794-4.5,4-4.5s4,2.019,4,4.5v1    C41.5,32.981,39.706,35,37.5,35z M37.5,26c-1.654,0-3,1.57-3,3.5v1c0,1.93,1.346,3.5,3,3.5s3-1.57,3-3.5v-1    C40.5,27.57,39.154,26,37.5,26z"/>  </g> </g> <g>  <g>   <path fill="#003082" d="M28,50h-9v-3c0-2.428,1.966-5.25,4.5-5.25c0.276,0,0.5,0.224,0.5,0.5s-0.224,0.5-0.5,0.5    c-1.939,0-3.5,2.325-3.5,4.25v2h8c0.276,0,0.5,0.224,0.5,0.5S28.276,50,28,50z"/>  </g> </g> <g>  <g>   <path fill="#003082" d="M36,50h-9c-0.276,0-0.5-0.224-0.5-0.5S26.724,49,27,49h8v-2c0-1.925-1.561-4.25-3.5-4.25    c-0.276,0-0.5-0.224-0.5-0.5s0.224-0.5,0.5-0.5c2.534,0,4.5,2.822,4.5,5.25V50z"/>  </g> </g> <g>  <g>   <path fill="#003082" d="M47.5,41c-2.206,0-4-2.019-4-4.5v-1c0-2.481,1.794-4.5,4-4.5s4,2.019,4,4.5v1    C51.5,38.981,49.706,41,47.5,41z M47.5,32c-1.654,0-3,1.57-3,3.5v1c0,1.93,1.346,3.5,3,3.5s3-1.57,3-3.5v-1    C50.5,33.57,49.154,32,47.5,32z"/>  </g> </g> <g>  <g>   <path fill="#003082" d="M48,50h-9v-3c0-2.428,1.966-5.25,4.5-5.25c0.276,0,0.5,0.224,0.5,0.5s-0.224,0.5-0.5,0.5    c-1.939,0-3.5,2.325-3.5,4.25v2h8c0.276,0,0.5,0.224,0.5,0.5S48.276,50,48,50z"/>  </g> </g> <g>  <g>   <path fill="#003082" d="M56,50h-9c-0.276,0-0.5-0.224-0.5-0.5S46.724,49,47,49h8v-2c0-1.925-1.561-4.25-3.5-4.25    c-0.276,0-0.5-0.224-0.5-0.5s0.224-0.5,0.5-0.5c2.534,0,4.5,2.822,4.5,5.25V50z"/>  </g> </g></g><style type="text/css">circle, ellipse, line, path, polygon, polyline, rect, text { fill: #003082; }</style></svg>